<svg width="24" height="24" viewBox="0 0 24 24" fill="none" xmlns="http://www.w3.org/2000/svg">
<path d="M6.376 18.91C6.80271 17.7622 7.57042 16.7724 8.57602 16.0736C9.58163 15.3748 10.777 15.0004 12.0015 15.0008C13.2261 15.0011 14.4213 15.3761 15.4265 16.0754C16.4317 16.7748 17.1989 17.765 17.625 18.913M20 13C20 18 16.5 20.5 12.34 21.95C12.1222 22.0238 11.8855 22.0203 11.67 21.94C7.5 20.5 4 18 4 13V6.00001C4 5.73479 4.10536 5.48044 4.29289 5.2929C4.48043 5.10536 4.73478 5.00001 5 5.00001C7 5.00001 9.5 3.80001 11.24 2.28001C11.4519 2.09901 11.7214 1.99956 12 1.99956C12.2786 1.99956 12.5481 2.09901 12.76 2.28001C14.51 3.81001 17 5.00001 19 5.00001C19.2652 5.00001 19.5196 5.10536 19.7071 5.2929C19.8946 5.48044 20 5.73479 20 6.00001V13ZM16 11C16 13.2091 14.2091 15 12 15C9.79086 15 8 13.2091 8 11C8 8.79087 9.79086 7.00001 12 7.00001C14.2091 7.00001 16 8.79087 16 11Z" stroke="black" stroke-width="2" stroke-linecap="round" stroke-linejoin="round"/>
</svg>
