<svg width="24" height="24" viewBox="0 0 24 24" fill="none" xmlns="http://www.w3.org/2000/svg">
<path d="M7 17.561V11.7073C7 10.4136 7.52678 9.17283 8.46447 8.25801C9.40215 7.3432 10.6739 6.82927 12 6.82927C13.3261 6.82927 14.5979 7.3432 15.5355 8.25801C16.4732 9.17283 17 10.4136 17 11.7073V17.561M7 17.561H17M7 17.561C6.46957 17.561 5.96086 17.7665 5.58579 18.1325C5.21071 18.4984 5 18.9947 5 19.5122V20.4878C5 20.7466 5.10536 20.9947 5.29289 21.1777C5.48043 21.3606 5.73478 21.4634 6 21.4634H18C18.2652 21.4634 18.5196 21.3606 18.7071 21.1777C18.8946 20.9947 19 20.7466 19 20.4878V19.5122C19 18.9947 18.7893 18.4984 18.4142 18.1325C18.0391 17.7665 17.5304 17.561 17 17.561M21 11.7073H22M18.5 4.39024L18 4.87805M2 11.7073H3M12 1.95122V2.92683M4.929 4.80878L5.636 5.49853M12 11.7073V17.561" stroke="white" stroke-width="2" stroke-linecap="round" stroke-linejoin="round"/>
</svg>
